<?xml version="1.0" encoding="UTF-8" standalone="no"?>
<svg
   enable-background="new 0 0 595.201 841.92"
   viewBox="0 0 74.999999 75"
   version="1.1"
   id="svg1"
   width="75"
   height="75"
   xml:space="preserve"
   sodipodi:docname="bomb_place_delay_icon.svg"
   inkscape:version="1.4.2 (ebf0e94, 2025-05-08)"
   xmlns:inkscape="http://www.inkscape.org/namespaces/inkscape"
   xmlns:sodipodi="http://sodipodi.sourceforge.net/DTD/sodipodi-0.dtd"
   xmlns="http://www.w3.org/2000/svg"
   xmlns:svg="http://www.w3.org/2000/svg"><sodipodi:namedview
     id="namedview1"
     pagecolor="#ffffff"
     bordercolor="#000000"
     borderopacity="0.25"
     inkscape:showpageshadow="2"
     inkscape:pageopacity="0.0"
     inkscape:pagecheckerboard="0"
     inkscape:deskcolor="#d1d1d1"
     inkscape:zoom="4.8093263"
     inkscape:cx="6.5497739"
     inkscape:cy="39.506573"
     inkscape:window-width="1366"
     inkscape:window-height="731"
     inkscape:window-x="0"
     inkscape:window-y="0"
     inkscape:window-maximized="1"
     inkscape:current-layer="svg1"
     showgrid="false" /><defs
     id="defs1" /><path
     d="m 49.211633,6.4285818 c 0.921077,-0.3970137 2.102808,-0.6516845 3.373159,-0.5976833 0.554624,3.5372107 -1.171191,6.2811805 -3.404261,7.4238575 -1.279852,0.654961 -2.882952,1.018028 -4.559836,0.692053 C 43.106996,13.652556 41.976404,13.001396 41.028912,12.027932 40.060468,11.032579 39.542411,9.932894 39.186369,8.3474601 38.865072,6.9174764 37.866046,5.9086235 36.37538,5.6421565 c -1.738828,-0.3109002 -2.995125,0.6227179 -3.591651,1.79305 -0.685668,1.3451805 -0.191556,2.9244545 0.09369,4.5612675 1.029738,-0.08481 2.209387,-0.29124 3.37303,-0.346027 0.66927,3.593702 1.24927,7.277057 1.905137,10.88413 7.420144,0.454815 12.58015,3.078987 16.615425,6.983458 3.933379,3.806036 6.983811,8.976391 7.62055,16.011622 0.706488,7.804354 -2.145363,13.825622 -5.46556,17.993283 -3.41337,4.284837 -8.215643,7.692288 -14.678924,8.902468 -3.588529,0.67187 -7.341286,0.549971 -10.556335,-0.220331 -3.153882,-0.755756 -5.897853,-2.059253 -8.182715,-3.617554 -4.689188,-3.198134 -8.171139,-7.687836 -9.962931,-13.652351 -0.935911,-3.115684 -1.312514,-6.995776 -0.843257,-10.506642 0.455723,-3.409417 1.531657,-6.411071 2.904553,-8.902336 2.803441,-5.086993 6.978085,-8.775985 12.461471,-11.135784 -0.583124,-3.690827 -1.319931,-7.226726 -1.873906,-10.947044 1.088688,-0.297924 2.186094,-0.587329 3.341797,-0.817882 C 29.325723,11.296949 28.979049,10.13068 29.004815,8.8191842 29.029415,7.5632628 29.42202,6.3782507 29.973,5.4532833 31.033058,3.6736024 33.010939,2.306795 35.438558,2.1502964 c 2.001436,-0.1291049 3.661273,0.656141 4.809561,1.6356338 1.215045,1.0363778 1.92843,2.4710799 2.31128,4.1523265 0.387273,1.7016935 1.826927,2.8380783 3.56029,2.7053033 1.920103,-0.146668 3.5599,-1.801045 3.091944,-4.2149782 z"
     fill-rule="evenodd"
     id="path1"
     style="stroke-width:0.130601" /><g
     id="g12"
     transform="matrix(1.6393665,0,0,1.6393665,10.989662,-67.223568)"
     style="fill:#f2f2f2"><path
       d="m 25.318359,47.939453 a 0.43176693,0.43176693 0 0 0 -0.296875,0.128906 l -1.441406,1.44336 a 0.43176693,0.43176693 0 1 0 0.609375,0.609375 l 1.443359,-1.441407 a 0.43176693,0.43176693 0 0 0 -0.314453,-0.740234 z"
       style="fill:#f2f2f2;fill-rule:evenodd"
       id="path12" /><path
       d="m 22.408203,45.914062 a 0.43176693,0.43176693 0 1 0 0,0.863282 h 2.242188 a 0.43176693,0.43176693 0 1 0 0,-0.863282 z"
       style="fill:#f2f2f2;fill-rule:evenodd"
       id="path11" /><path
       d="m 23.839844,42.478516 a 0.43176693,0.43176693 0 0 0 -0.300782,0.740234 l 1.240235,1.240234 a 0.43176693,0.43176693 0 1 0 0.611328,-0.609375 l -1.240234,-1.240234 a 0.43176693,0.43176693 0 0 0 -0.310547,-0.130859 z"
       style="fill:#f2f2f2;fill-rule:evenodd"
       id="path10" /><path
       d="m 27.306641,41.005859 a 0.43176693,0.43176693 0 0 0 -0.425782,0.4375 v 1.742188 a 0.43196324,0.43196324 0 0 0 0.863282,0 v -1.742188 a 0.43176693,0.43176693 0 0 0 -0.4375,-0.4375 z"
       style="fill:#f2f2f2;fill-rule:evenodd"
       id="path9" /><path
       d="m 30.771484,42.478516 a 0.43176693,0.43176693 0 0 0 -0.296875,0.130859 l -1.4375,1.435547 a 0.43227426,0.43227426 0 1 0 0.611328,0.611328 l 1.4375,-1.4375 a 0.43176693,0.43176693 0 0 0 -0.314453,-0.740234 z"
       style="fill:#f2f2f2;fill-rule:evenodd"
       id="path8" /><path
       d="m 26.603516,44.994141 c -0.422056,-0.0067 -0.723699,0.403705 -0.591797,0.804687 l 3.884765,11.839844 c 0.164203,0.497178 0.835827,0.57456 1.107422,0.126953 l 1.777344,-2.933594 2.556641,2.558594 c 0.239589,0.239509 0.627555,0.239509 0.867187,0 l 2.173828,-2.173828 c 0.239467,-0.239571 0.239467,-0.627617 0,-0.867188 L 35.822266,51.792969 38.75,50.017578 c 0.447644,-0.271595 0.372166,-0.943189 -0.125,-1.107422 L 26.785156,45.025391 c -0.0584,-0.01963 -0.1201,-0.03002 -0.18164,-0.03125 z"
       style="fill:#f2f2f2"
       id="path7" /></g></svg>
