<?xml version="1.0" encoding="UTF-8" standalone="no"?>
<svg
   enable-background="new 0 0 595.201 841.92"
   viewBox="0 0 74.999999 75"
   version="1.1"
   id="svg1"
   width="75"
   height="75"
   sodipodi:docname="bomb_damage_icon.svg"
   inkscape:version="1.4.2 (ebf0e94, 2025-05-08)"
   xmlns:inkscape="http://www.inkscape.org/namespaces/inkscape"
   xmlns:sodipodi="http://sodipodi.sourceforge.net/DTD/sodipodi-0.dtd"
   xmlns="http://www.w3.org/2000/svg"
   xmlns:svg="http://www.w3.org/2000/svg">
  <sodipodi:namedview
     id="namedview1"
     pagecolor="#ffffff"
     bordercolor="#000000"
     borderopacity="0.25"
     inkscape:showpageshadow="2"
     inkscape:pageopacity="0.0"
     inkscape:pagecheckerboard="0"
     inkscape:deskcolor="#d1d1d1"
     showgrid="false"
     inkscape:zoom="3.4147527"
     inkscape:cx="3.5141637"
     inkscape:cy="37.191565"
     inkscape:window-width="1366"
     inkscape:window-height="731"
     inkscape:window-x="0"
     inkscape:window-y="0"
     inkscape:window-maximized="1"
     inkscape:current-layer="svg1" />
  <defs
     id="defs1" />
  <path
     d="m 49.211627,6.4285854 c 0.921077,-0.3970137 2.102808,-0.6516844 3.373159,-0.5976833 0.554624,3.5372104 -1.171191,6.2811799 -3.404261,7.4238569 -1.279851,0.65496 -2.882952,1.018028 -4.559836,0.692053 C 43.106991,13.652559 41.9764,13.001399 41.028907,12.027935 40.060462,11.032582 39.542406,9.9328971 39.186363,8.3474635 38.865067,6.91748 37.866041,5.9086271 36.375376,5.6421601 34.636548,5.33126 33.380251,6.264878 32.783725,7.43521 c -0.685668,1.3451802 -0.191555,2.924454 0.0937,4.561267 1.029737,-0.08481 2.209386,-0.29124 3.373029,-0.346027 0.669271,3.593702 1.24927,7.277057 1.905137,10.884128 7.420144,0.454816 12.580149,3.078987 16.615424,6.983458 3.933378,3.806036 6.98381,8.976391 7.620548,16.01162 0.706488,7.804353 -2.145362,13.825622 -5.465558,17.993281 -3.41337,4.284837 -8.215643,7.692288 -14.678924,8.902467 -3.588528,0.67187 -7.341285,0.549971 -10.556334,-0.22033 -3.153891,-0.755757 -5.897861,-2.059253 -8.182724,-3.617555 -4.689187,-3.198132 -8.171137,-7.687834 -9.962929,-13.652348 -0.935911,-3.115685 -1.312514,-6.995776 -0.843257,-10.506642 0.455723,-3.409416 1.531657,-6.41107 2.904553,-8.902335 2.80344,-5.086992 6.978084,-8.775984 12.461469,-11.135783 -0.583123,-3.690826 -1.319931,-7.226725 -1.873906,-10.947042 1.088689,-0.297924 2.186094,-0.58733 3.341798,-0.817882 -0.210032,-1.328535 -0.556706,-2.494804 -0.530939,-3.8062995 0.0246,-1.2559213 0.417204,-2.4409333 0.968184,-3.3659005 1.060057,-1.7796808 3.037939,-3.146488 5.465557,-3.3029867 2.001436,-0.1291048 3.661273,0.656141 4.80956,1.6356338 1.215046,1.0363776 1.928431,2.4710796 2.31128,4.152326 0.387274,1.7016932 1.826928,2.8380779 3.56029,2.7053029 1.920103,-0.146668 3.559899,-1.8010448 3.091944,-4.2149776 z"
     fill-rule="evenodd"
     id="path1"
     style="stroke-width:0.130601" />
  <g
     id="g15"
     transform="matrix(1.2079582,0,0,1.2079582,33.010896,-46.175121)"
     style="fill:#f2f2f2">
    <path
       id="path10"
       style="fill:#f2f2f2;fill-opacity:1;stroke-width:1.03863"
       d="m 28.569127,38.225761 c -0.08802,0.120876 -0.186114,0.236978 -0.29346,0.346873 l -2.951617,3.02172 c -1.192923,1.221256 -3.113997,1.221256 -4.30692,0 l -2.951617,-3.02172 c -0.107346,-0.109895 -0.205433,-0.225997 -0.293461,-0.346873 -0.890204,1.222409 -0.792116,2.950979 0.293461,4.06234 l 2.951617,3.021718 c 1.192923,1.221256 3.113997,1.221256 4.30692,0 l 2.951617,-3.021718 c 1.085577,-1.111361 1.183665,-2.839931 0.29346,-4.06234 z"
       inkscape:transform-center-y="-10.240213" />
    <path
       id="path13"
       style="fill:#f2f2f2;fill-opacity:1;stroke-width:1.03863"
       d="m 34.760395,55.214103 c -0.120876,-0.08802 -0.236978,-0.186114 -0.346873,-0.29346 l -3.02172,-2.951617 c -1.221256,-1.192923 -1.221256,-3.113997 0,-4.30692 l 3.02172,-2.951617 c 0.109895,-0.107346 0.225997,-0.205433 0.346873,-0.293461 -1.222409,-0.890204 -2.950979,-0.792116 -4.06234,0.293461 l -3.021718,2.951617 c -1.221256,1.192923 -1.221256,3.113997 0,4.30692 l 3.021718,2.951617 c 1.111361,1.085577 2.839931,1.183665 4.06234,0.29346 z"
       inkscape:transform-center-y="-7.5898049" />
    <path
       id="path14"
       style="fill:#f2f2f2;fill-opacity:1;stroke-width:1.03863"
       d="m 17.772053,61.405371 c 0.08802,-0.120876 0.186114,-0.236978 0.29346,-0.346873 l 2.951617,-3.02172 c 1.192923,-1.221256 3.113997,-1.221256 4.30692,0 l 2.951617,3.02172 c 0.107346,0.109895 0.205433,0.225997 0.293461,0.346873 0.890204,-1.222409 0.792116,-2.950979 -0.293461,-4.06234 L 25.32405,54.321313 c -1.192923,-1.221256 -3.113997,-1.221256 -4.30692,0 l -2.951617,3.021718 c -1.085577,1.111361 -1.183665,2.839931 -0.29346,4.06234 z"
       inkscape:transform-center-y="-7.5898049" />
    <path
       id="rect1"
       style="fill:#f2f2f2;fill-opacity:1;stroke-width:1.03863"
       d="m 11.580785,44.417029 c 0.120876,0.08802 0.236978,0.186114 0.346873,0.29346 l 3.02172,2.951617 c 1.221256,1.192923 1.221256,3.113997 0,4.30692 l -3.02172,2.951617 c -0.109895,0.107346 -0.225997,0.205433 -0.346873,0.293461 1.222409,0.890204 2.950979,0.792116 4.06234,-0.293461 l 3.021718,-2.951617 c 1.221256,-1.192923 1.221256,-3.113997 0,-4.30692 l -3.021718,-2.951617 c -1.111361,-1.085577 -2.839931,-1.183665 -4.06234,-0.29346 z"
       inkscape:transform-center-x="7.5898049" />
  </g>
</svg>
