<?xml version="1.0" encoding="UTF-8" standalone="no"?>
<svg
   enable-background="new 0 0 595.201 841.92"
   viewBox="0 0 74.999999 75"
   version="1.1"
   id="svg1"
   width="75"
   height="75"
   xml:space="preserve"
   sodipodi:docname="bomb_detonation_delay_icon.svg"
   inkscape:version="1.4.2 (ebf0e94, 2025-05-08)"
   xmlns:inkscape="http://www.inkscape.org/namespaces/inkscape"
   xmlns:sodipodi="http://sodipodi.sourceforge.net/DTD/sodipodi-0.dtd"
   xmlns="http://www.w3.org/2000/svg"
   xmlns:svg="http://www.w3.org/2000/svg"><sodipodi:namedview
     id="namedview1"
     pagecolor="#ffffff"
     bordercolor="#000000"
     borderopacity="0.25"
     inkscape:showpageshadow="2"
     inkscape:pageopacity="0.0"
     inkscape:pagecheckerboard="0"
     inkscape:deskcolor="#d1d1d1"
     inkscape:zoom="5.0176309"
     inkscape:cx="16.442023"
     inkscape:cy="48.628527"
     inkscape:window-width="1366"
     inkscape:window-height="731"
     inkscape:window-x="0"
     inkscape:window-y="0"
     inkscape:window-maximized="1"
     inkscape:current-layer="svg1" /><defs
     id="defs1" /><path
     d="m 49.211631,6.4285807 c 0.921078,-0.3970134 2.102809,-0.6516845 3.37316,-0.5976834 0.554624,3.5372113 -1.171191,6.2811807 -3.404262,7.4238577 -1.279851,0.654961 -2.882951,1.018029 -4.559835,0.692053 -1.5137,-0.294253 -2.644292,-0.945412 -3.591784,-1.918876 C 40.060467,11.032578 39.542409,9.9328936 39.186368,8.3474586 38.86507,6.9174756 37.866045,5.9086218 36.375379,5.6421551 c -1.738828,-0.3109 -2.995127,0.6227189 -3.591651,1.7930505 -0.685668,1.345181 -0.191557,2.9244544 0.09369,4.5612694 1.029738,-0.08481 2.209388,-0.29124 3.37303,-0.346028 0.66927,3.593701 1.24927,7.277057 1.905138,10.884129 7.420144,0.454816 12.580151,3.078988 16.615425,6.983459 3.933379,3.806036 6.983811,8.976392 7.62055,16.011622 0.706488,7.804356 -2.145362,13.825625 -5.46556,17.993285 -3.41337,4.284837 -8.215642,7.692289 -14.678925,8.902467 -3.588528,0.67187 -7.341285,0.549972 -10.556334,-0.22033 C 28.53686,71.449323 25.79289,70.145825 23.508028,68.587524 18.81884,65.389391 15.336889,60.899688 13.545098,54.935174 12.609187,51.819488 12.232582,47.939397 12.70184,44.42853 c 0.455723,-3.409417 1.531658,-6.41107 2.904553,-8.902336 2.80344,-5.086993 6.978086,-8.775985 12.461471,-11.135784 -0.583124,-3.690828 -1.319931,-7.226726 -1.873905,-10.947045 1.088688,-0.297923 2.186093,-0.587329 3.341797,-0.817881 -0.210032,-1.328536 -0.556706,-2.494805 -0.530939,-3.8062994 0.0246,-1.255924 0.417205,-2.4409351 0.968185,-3.3659028 1.060057,-1.7796812 3.037939,-3.1464882 5.465557,-3.3029868 2.001437,-0.1291048 3.661273,0.656141 4.809562,1.6356334 1.215045,1.0363789 1.92843,2.47108 2.31128,4.1523282 0.387274,1.701692 1.826926,2.8380784 3.56029,2.7053024 1.920103,-0.146668 3.5599,-1.8010444 3.091944,-4.2149783 z"
     fill-rule="evenodd"
     id="path1"
     style="stroke-width:0.130601" /><g
     id="g1"
     transform="matrix(0.28,0,0,0.28,50.49832,0)"
     style="fill:#f2f2f2"><path
       d="m 43,26 c -1.656,0 -3,1.343 -3,3 v 28 c 0,1.657 1.344,3 3,3 1.656,0 3,-1.343 3,-3 V 29 c 0,-1.657 -1.344,-3 -3,-3 z"
       id="path1-3"
       style="fill:#f2f2f2" /><path
       d="m 87.506,23.807 c 0,0 -1.414,-4.242 -4.243,-7.07 -2.829,-2.828 -7.07,-4.243 -7.07,-4.243 l -8.988,8.988 C 62.408,18.202 56.916,15.876 51,14.758 V 2 C 51,2 47,0 43,0 39,0 35,2 35,2 V 14.758 C 15.102,18.52 0,36.024 0,57 0,80.71 19.29,100 43,100 66.71,100 86,80.71 86,57 86,48.029 83.235,39.695 78.518,32.795 Z M 43,94 C 22.598,94 6,77.402 6,57 6,36.598 22.598,20 43,20 63.402,20 80,36.598 80,57 80,77.402 63.402,94 43,94 Z"
       id="path2"
       style="fill:#f2f2f2" /></g></svg>
