<?xml version="1.0" encoding="UTF-8" standalone="no"?>
<!-- Created with Inkscape (http://www.inkscape.org/) -->

<svg
   width="80"
   height="80"
   viewBox="0 0 21.166667 21.166667"
   version="1.1"
   id="svg1"
   sodipodi:docname="bunch_spawn_chance_icon.svg"
   inkscape:version="1.4.2 (ebf0e94, 2025-05-08)"
   xml:space="preserve"
   xmlns:inkscape="http://www.inkscape.org/namespaces/inkscape"
   xmlns:sodipodi="http://sodipodi.sourceforge.net/DTD/sodipodi-0.dtd"
   xmlns="http://www.w3.org/2000/svg"
   xmlns:svg="http://www.w3.org/2000/svg"><sodipodi:namedview
     id="namedview1"
     pagecolor="#ffffff"
     bordercolor="#000000"
     borderopacity="0.25"
     inkscape:showpageshadow="2"
     inkscape:pageopacity="0.0"
     inkscape:pagecheckerboard="0"
     inkscape:deskcolor="#d1d1d1"
     inkscape:zoom="3.2974708"
     inkscape:cx="30.781167"
     inkscape:cy="41.243732"
     inkscape:window-width="1366"
     inkscape:window-height="731"
     inkscape:window-x="0"
     inkscape:window-y="0"
     inkscape:window-maximized="1"
     inkscape:current-layer="svg1" /><defs
     id="defs1" /><g
     id="g1"
     transform="matrix(1.0967087,0,0,1.1010038,-1.0017297,-1.068957)"><path
       style="fill:#000000;stroke-width:0.264583"
       id="path3"
       d="M 6.0839945,5.018222 H 2.2771191 L 4.1805568,1.7213712 Z"
       transform="matrix(1.380557,0,0,1.5941299,4.6792999,8.5974189)" /><circle
       style="fill:#000000;stroke-width:0.39132"
       id="path4"
       cx="6.5568528"
       cy="11.364228"
       r="2.6278043" /><rect
       style="fill:#000000;stroke-width:0.415778"
       id="rect4"
       width="5.2556086"
       height="5.2556086"
       x="6.7835174"
       y="4.5695505" /><path
       style="fill:#000000;stroke-width:0.264583"
       id="path12"
       d="M 6.0839945,5.018222 H 2.2771191 L 4.1805568,1.7213712 Z"
       transform="matrix(1.380557,0,0,1.5941299,8.3063534,2.8616133)" /><circle
       style="fill:#000000;stroke-width:0.39132"
       id="circle12"
       cx="14.570112"
       cy="13.328947"
       r="2.6278043" /></g><g
     id="g12"
     transform="matrix(1.9194761,0,0,1.8204433,-14.889031,-4.272648)"
     style="fill:#f2f2f2"><path
       d="m 15.850617,2.3470371 a 0.92604139,0.92604139 0 0 0 -0.926042,0.9260413 0.92604139,0.92604139 0 0 0 0.926042,0.9260414 0.92604139,0.92604139 0 0 0 0.926041,-0.9260414 0.92604139,0.92604139 0 0 0 -0.926041,-0.9260413 z m 0,0.4630207 a 0.46302068,0.46302068 0 0 1 0.46302,0.4630206 0.46302068,0.46302068 0 0 1 -0.46302,0.4630207 0.46302068,0.46302068 0 0 1 -0.463021,-0.4630207 0.46302068,0.46302068 0 0 1 0.463021,-0.4630206 z"
       style="fill:#f2f2f2;stroke:#000000;stroke-width:0"
       id="path9" /><path
       d="m 17.858094,4.5644761 a 0.92604139,0.92604139 0 0 0 -0.926042,0.9260413 0.92604139,0.92604139 0 0 0 0.926042,0.9260414 0.92604139,0.92604139 0 0 0 0.926041,-0.9260414 0.92604139,0.92604139 0 0 0 -0.926041,-0.9260413 z m 0,0.4630207 a 0.46302068,0.46302068 0 0 1 0.46302,0.4630206 0.46302068,0.46302068 0 0 1 -0.46302,0.4630207 0.46302068,0.46302068 0 0 1 -0.463021,-0.4630207 0.46302068,0.46302068 0 0 1 0.463021,-0.4630206 z"
       style="fill:#f2f2f2;stroke:#000000;stroke-width:0"
       id="path10" /><rect
       style="fill:#f2f2f2;stroke:#000000;stroke-width:0"
       id="rect10"
       width="0.55781782"
       height="4.8148351"
       x="14.892505"
       y="-10.888947"
       transform="rotate(43.946614)" /></g></svg>
