<?xml version="1.0" encoding="UTF-8" standalone="no"?>
<!-- Created with Inkscape (http://www.inkscape.org/) -->

<svg
   width="18mm"
   height="18mm"
   viewBox="0 0 18 18"
   version="1.1"
   id="svg5"
   xmlns="http://www.w3.org/2000/svg"
   xmlns:svg="http://www.w3.org/2000/svg">
  <defs
     id="defs2" />
  <g
     id="layer1"
     transform="translate(-0.50667467,-0.00250405)">
    <path
       d="M 9.5521174,0.00250405 8.2152481,2.6705582 9.4022557,3.6549943 6.8370376,5.4223283 6.6768407,5.7422054 5.9264989,8.3678849 6.2210546,10.370347 4.8660985,10.664902 4.4035944,10.279913 l -2.1078816,4.207495 0.920874,1.126029 -1.5993856,0.22841 -1.11052653,2.216402 2.39933673,-0.0016 0.956014,-0.807186 0.8810832,0.805636 1.7595825,-10e-4 2.7951782,-1.677417 1.6014527,1.674317 1.534273,-0.001 1.293461,-0.901237 0.826823,0.900204 3.952731,-0.0026 -2.559017,-5.156275 -0.928109,0.795818 0.373104,-1.914612 -0.40566,-0.817005 -1.004073,0.174667 L 12.738486,9.7466121 13.936863,8.8376237 13.281089,7.5162573 12.324041,7.0516862 12.730218,6.4067643 Z"
       style="display:inline;fill:#5ce1e6;stroke-width:0.264583"
       id="path9" />
  </g>
</svg>
