<?xml version="1.0" encoding="UTF-8" standalone="no"?>
<!-- Created with Inkscape (http://www.inkscape.org/) -->

<svg
   width="18mm"
   height="18mm"
   viewBox="0 0 18 18"
   version="1.1"
   id="svg5"
   xmlns="http://www.w3.org/2000/svg"
   xmlns:svg="http://www.w3.org/2000/svg">
  <defs
     id="defs2" />
  <g
     id="layer1"
     transform="translate(-0.50667467,-0.00250405)">
    <g
       id="g5921"
       transform="matrix(0.72,0,0,0.72222224,0.1418688,6.9563156e-4)">
      <path
         style="display:inline;fill:#5ce1e6;fill-opacity:1;stroke-width:0.264583"
         id="path1989"
         d="M 21.766159,132.13785 10.668498,84.786364 -0.42916352,37.434876 46.127261,51.499764 92.683684,65.564652 57.22492,98.851254 Z"
         transform="matrix(0.18687634,0.20293526,-0.17645527,0.21642177,19.755515,-8.0121254)" />
    </g>
    <path
       style="fill:#2fb1d9;fill-opacity:1;stroke-width:0.264583"
       d="M 13.244654,7.5404855 11.874112,8.8304076 11.108221,10.966841 12.236903,9.4350582 13.567134,8.3466868 Z"
       id="path1" />
    <path
       style="fill:#2fb1d9;fill-opacity:1;stroke-width:0.264583"
       d="M 4.7392311,9.5156784 6.8756643,8.5885472 7.9237259,7.5807956 6.3113234,8.2257566 5.3438821,8.4273069 Z"
       id="path2" />
    <path
       style="fill:#2fb1d9;fill-opacity:1;stroke-width:0.264583"
       d="m 3.8120997,17.940481 1.9751931,-2.378293 2.9426344,-0.806202 -2.3379837,1.451162 -1.410852,1.854263 z"
       id="path3" />
    <path
       style="fill:#2fb1d9;fill-opacity:1;stroke-width:0.264583"
       d="M 12.44902,9.1280037 12.809,10.378935 12.737,8.5160373 Z"
       id="path5" />
    <path
       style="fill:#2fb1d9;fill-opacity:1;stroke-width:0.264583"
       d="M 13.965121,18.007606 11.804163,14.7921 15.434572,17.981674 Z"
       id="path6" />
    <path
       style="fill:#2fb1d9;fill-opacity:1;stroke-width:0.264583"
       d="m 13.465899,16.483507 c 0.06906,-0.253199 0.276218,-2.347852 0.276218,-2.347852 l 0.828654,-0.759599 -0.414327,1.081853 -0.2532,2.808216 z"
       id="path7" />
    <path
       style="fill:#2fb1d9;fill-opacity:1;stroke-width:0.264583"
       d="M 8.1724917,2.775803 9.2713459,3.5476175 9.4544884,4.3848398 10.226303,4.8034509 9.3105908,4.6857166 8.8919797,3.6261069 7.9108598,3.2205774 Z"
       id="path8" />
    <path
       style="fill:#2fb1d9;fill-opacity:1;stroke-width:0.264583"
       d="M 3.1205501,12.8865 8.1814579,11.125378 2.1936439,14.740312 2.9907832,12.8865 Z"
       id="path9" />
    <path
       style="fill:#2fb1d9;fill-opacity:1;stroke-width:0.264583"
       d="M 4.7832761,12.372929 7.4848634,9.2119629 9.1911288,9.0916495 7.7254906,9.7479055 5.7676602,12.044801 Z"
       id="path11" />
    <path
       style="fill:#2f9bd9;fill-opacity:1;stroke-width:0.264583"
       d="m 2.7003518,13.53018 c 0,0.0457 2.5592901,-1.073988 2.5592901,-1.073988 l -2.7078203,1.485302 z"
       id="path12" />
    <path
       style="fill:#2f9bd9;fill-opacity:1;stroke-width:0.264583"
       d="m 7.0718618,9.9770101 c -0.1798682,0.1144609 -1.488,1.8886149 -1.488,1.8886149 z"
       id="path13" />
    <path
       style="fill:#2f9bd9;fill-opacity:1;stroke-width:0.264583"
       d="M 4.1374909,17.962379 5.8515741,15.935877 6.8901563,15.564351 5.9106804,16.037202 4.3148098,17.962379 Z"
       id="path14" />
    <path
       style="fill:#2f9bd9;fill-opacity:1;stroke-width:0.264583"
       d="M 13.369044,7.8688747 12.057983,8.9161728 13.400075,8.0085146 Z"
       id="path15" />
    <path
       style="fill:#2f9bd9;fill-opacity:1;stroke-width:0.264583"
       d="m 12.484659,8.6291356 0.09309,0.457708 -0.03103,-0.5120124 z"
       id="path16" />
    <path
       style="fill:#2f9bd9;fill-opacity:1;stroke-width:0.264583"
       d="m 14.432011,17.964479 -1.142647,-1.484372 1.463015,1.495051 z"
       id="path17" />
    <path
       style="fill:#2f9bd9;fill-opacity:1;stroke-width:0.264583"
       d="m 13.588375,16.789796 0.138826,-0.790241 0.05339,0.950425 z"
       id="path18" />
    <path
       style="fill:#2f9bd9;fill-opacity:1;stroke-width:0.264583"
       d="M 5.1396309,8.7860504 6.2838474,8.4831694 5.0106259,9.0272335 Z"
       id="path19" />
  </g>
</svg>
