<?xml version="1.0" encoding="UTF-8" standalone="no"?>
<!-- Created with Inkscape (http://www.inkscape.org/) -->

<svg
   width="75"
   height="75"
   viewBox="0 0 19.843748 19.843748"
   version="1.1"
   id="svg1"
   xml:space="preserve"
   sodipodi:docname="fractalization_chance_icon.svg"
   inkscape:version="1.4.2 (ebf0e94, 2025-05-08)"
   xmlns:inkscape="http://www.inkscape.org/namespaces/inkscape"
   xmlns:sodipodi="http://sodipodi.sourceforge.net/DTD/sodipodi-0.dtd"
   xmlns="http://www.w3.org/2000/svg"
   xmlns:svg="http://www.w3.org/2000/svg"><sodipodi:namedview
     id="namedview1"
     pagecolor="#ffffff"
     bordercolor="#000000"
     borderopacity="0.25"
     inkscape:showpageshadow="2"
     inkscape:pageopacity="0.0"
     inkscape:pagecheckerboard="0"
     inkscape:deskcolor="#d1d1d1"
     showgrid="false"
     inkscape:zoom="3.8919134"
     inkscape:cx="13.746452"
     inkscape:cy="34.173422"
     inkscape:window-width="1366"
     inkscape:window-height="731"
     inkscape:window-x="0"
     inkscape:window-y="0"
     inkscape:window-maximized="1"
     inkscape:current-layer="g11" /><defs
     id="defs1" /><path
     style="fill:#000000;stroke:#ff0000;stroke-width:0;stroke-opacity:1"
     id="path1"
     d="M 13.925774,9.8692472 5.987902,9.8904102 9.9155029,1.984375 Z" /><path
     style="fill:#000000;stroke:#000000;stroke-width:0;stroke-opacity:1"
     id="path3"
     d="M 9.9222945,17.838212 1.9844222,17.859375 5.9120231,9.9533398 Z" /><path
     style="fill:#000000;stroke:#000000;stroke-width:0;stroke-opacity:1"
     id="path4"
     d="M 17.859328,17.838212 9.9214555,17.859375 13.849056,9.9533398 Z" /><path
     style="fill:#ffffff;stroke:#ff0000;stroke-width:0;stroke-opacity:1"
     id="path5"
     d="M 7.9483773,5.9003093 11.965299,5.8895999 9.9777556,9.8904104 Z" /><path
     style="fill:#ffffff;stroke:#ff0000;stroke-width:0;stroke-opacity:1"
     id="path6"
     d="m 11.881931,13.869274 4.016922,-0.01071 -1.987543,4.00081 z" /><path
     style="fill:#ffffff;stroke:#ff0000;stroke-width:0;stroke-opacity:1"
     id="path7"
     d="m 3.9448973,13.869274 4.0169216,-0.01071 -1.9875433,4.00081 z" /><g
     id="g11"><g
       id="g12"
       transform="matrix(1.9194759,0,0,1.8204431,-16.211946,-4.2726475)"
       style="fill:#f2f2f2"><path
         d="m 15.850617,2.3470371 a 0.92604139,0.92604139 0 0 0 -0.926042,0.9260413 0.92604139,0.92604139 0 0 0 0.926042,0.9260414 0.92604139,0.92604139 0 0 0 0.926041,-0.9260414 0.92604139,0.92604139 0 0 0 -0.926041,-0.9260413 z m 0,0.4630207 a 0.46302068,0.46302068 0 0 1 0.46302,0.4630206 0.46302068,0.46302068 0 0 1 -0.46302,0.4630207 0.46302068,0.46302068 0 0 1 -0.463021,-0.4630207 0.46302068,0.46302068 0 0 1 0.463021,-0.4630206 z"
         style="stroke:#000000;stroke-width:0;fill:#f2f2f2"
         id="path9" /><path
         d="m 17.858094,4.5644761 a 0.92604139,0.92604139 0 0 0 -0.926042,0.9260413 0.92604139,0.92604139 0 0 0 0.926042,0.9260414 0.92604139,0.92604139 0 0 0 0.926041,-0.9260414 0.92604139,0.92604139 0 0 0 -0.926041,-0.9260413 z m 0,0.4630207 a 0.46302068,0.46302068 0 0 1 0.46302,0.4630206 0.46302068,0.46302068 0 0 1 -0.46302,0.4630207 0.46302068,0.46302068 0 0 1 -0.463021,-0.4630207 0.46302068,0.46302068 0 0 1 0.463021,-0.4630206 z"
         style="stroke:#000000;stroke-width:0;fill:#f2f2f2"
         id="path10" /><rect
         style="fill:#f2f2f2;stroke:#000000;stroke-width:0"
         id="rect10"
         width="0.55781782"
         height="4.8148351"
         x="14.892505"
         y="-10.888947"
         transform="rotate(43.946614)" /></g></g></svg>
