<?xml version="1.0" encoding="UTF-8" standalone="no"?>
<!-- Created with Inkscape (http://www.inkscape.org/) -->

<svg
   width="65.943192"
   height="75.439583"
   viewBox="0 0 17.447469 19.960056"
   version="1.1"
   id="svg1"
   xml:space="preserve"
   xmlns="http://www.w3.org/2000/svg"
   xmlns:svg="http://www.w3.org/2000/svg"><defs
     id="defs1" /><g
     id="layer1"
     transform="translate(-2.3962806)"><path
       style="fill:#000000;stroke:#000000;stroke-width:0"
       id="path1"
       d="M 5.0391197,29.954769 32.580209,-25.139243 66.522478,26.259046 Z"
       transform="matrix(0.24374371,0.01576182,-0.01758975,0.27201107,1.6949238,8.9704623)" /><g
       id="g31"
       transform="translate(-0.08076681,-0.88843496)"><path
         style="fill:#000000;stroke:#000000;stroke-width:0"
         id="path17"
         d="m 14.466252,8.6091842 -0.04709,-1.2780343 -0.729151,-1.0506794 1.278034,-0.047087 1.05068,-0.7291511 0.04709,1.2780343 0.729151,1.0506794 -1.278035,0.047087 z"
         transform="matrix(0.77954695,0,0,0.77954695,3.3351853,1.2359936)" /><path
         style="fill:#000000;stroke:#000000;stroke-width:0"
         id="path19"
         d="M 3.7400553,10.443928 2.8846891,9.9635347 1.9053112,10.020525 2.3857044,9.1651592 2.3287137,8.1857813 3.1840799,8.6661746 4.1634578,8.6091838 3.6830645,9.46455 Z"
         transform="matrix(0.77954695,0,0,0.77954695,10.632387,-0.80818157)" /><path
         style="fill:#000000;stroke:#000000;stroke-width:0"
         id="path21"
         d="M 10.091092,18.488575 9.0867651,18.385967 8.1857811,18.841411 8.2883897,17.837084 7.8329457,16.9361 8.8372728,17.038708 9.7382569,16.583264 9.6356483,17.587591 Z"
         transform="matrix(0.77954695,0,0,0.77954695,7.1567239,-9.0017552)" /></g><path
       style="fill:#000000;stroke:#000000;stroke-width:0"
       id="path22"
       d="m 14.466252,8.6091842 -0.04709,-1.2780343 -0.729151,-1.0506794 1.278034,-0.047087 1.05068,-0.7291511 0.04709,1.2780343 0.729151,1.0506794 -1.278035,0.047087 z"
       transform="matrix(0.77954695,0,0,0.77954695,-0.763969,13.248794)" /><path
       style="fill:#000000;stroke:#000000;stroke-width:0"
       id="path23"
       d="M 3.7400553,10.443928 2.8846891,9.9635347 1.9053112,10.020525 2.3857044,9.1651592 2.3287137,8.1857813 3.1840799,8.6661746 4.1634578,8.6091838 3.6830645,9.46455 Z"
       transform="matrix(0.77954695,0,0,0.77954695,6.5332327,11.204618)" /><g
       id="g29"
       transform="rotate(57.026806,9.2318693,-2.426012)"
       style="fill:#000000"><path
         style="fill:#000000;stroke:#000000;stroke-width:0"
         id="path27"
         d="m 14.466252,8.6091842 -0.04709,-1.2780343 -0.729151,-1.0506794 1.278034,-0.047087 1.05068,-0.7291511 0.04709,1.2780343 0.729151,1.0506794 -1.278035,0.047087 z"
         transform="matrix(0.77954695,0,0,0.77954695,3.3351853,1.2359936)" /><path
         style="fill:#000000;stroke:#000000;stroke-width:0"
         id="path28"
         d="M 3.7400553,10.443928 2.8846891,9.9635347 1.9053112,10.020525 2.3857044,9.1651592 2.3287137,8.1857813 3.1840799,8.6661746 4.1634578,8.6091838 3.6830645,9.46455 Z"
         transform="matrix(0.77954695,0,0,0.77954695,10.632387,-0.80818157)" /><path
         style="fill:#000000;stroke:#000000;stroke-width:0"
         id="path29"
         d="M 10.091092,18.488575 9.0867651,18.385967 8.1857811,18.841411 8.2883897,17.837084 7.8329457,16.9361 8.8372728,17.038708 9.7382569,16.583264 9.6356483,17.587591 Z"
         transform="matrix(0.77954695,0,0,0.77954695,7.1567239,-9.0017552)" /></g><g
       id="g1"
       transform="matrix(0.82866625,0.82866625,-0.82866625,0.82866625,5.8347738,-12.73968)"><rect
         style="fill:#f2f2f2;stroke-width:0.569977"
         id="rect5"
         width="1.5317343"
         height="7.4083333"
         x="15.373716"
         y="3.3683014e-07" /><rect
         style="fill:#f2f2f2;stroke-width:0.569977"
         id="rect6"
         width="1.5317343"
         height="7.4083333"
         x="2.9383008"
         y="-19.84375"
         transform="rotate(90)" /></g></g></svg>
