<?xml version="1.0" encoding="UTF-8" standalone="no"?>
<!-- Created with Inkscape (http://www.inkscape.org/) -->

<svg
   width="75"
   height="75"
   viewBox="0 0 19.843748 19.843748"
   version="1.1"
   id="svg1"
   inkscape:version="1.4.2 (ebf0e94, 2025-05-08)"
   sodipodi:docname="sierpinskies_triangle_chance_icon.svg"
   xml:space="preserve"
   xmlns:inkscape="http://www.inkscape.org/namespaces/inkscape"
   xmlns:sodipodi="http://sodipodi.sourceforge.net/DTD/sodipodi-0.dtd"
   xmlns="http://www.w3.org/2000/svg"
   xmlns:svg="http://www.w3.org/2000/svg"><sodipodi:namedview
     id="namedview1"
     pagecolor="#ffffff"
     bordercolor="#000000"
     borderopacity="0.25"
     inkscape:showpageshadow="2"
     inkscape:pageopacity="0.0"
     inkscape:pagecheckerboard="0"
     inkscape:deskcolor="#d1d1d1"
     inkscape:document-units="mm"
     inkscape:zoom="4.057102"
     inkscape:cx="11.584624"
     inkscape:cy="31.549613"
     inkscape:window-width="1366"
     inkscape:window-height="731"
     inkscape:window-x="0"
     inkscape:window-y="0"
     inkscape:window-maximized="1"
     inkscape:current-layer="layer1"
     showgrid="false" /><defs
     id="defs1" /><g
     inkscape:label="Layer 1"
     inkscape:groupmode="layer"
     id="layer1"><path
       sodipodi:type="star"
       style="fill:#000000;stroke:#ff0000;stroke-width:0;stroke-opacity:1"
       id="path1"
       inkscape:flatsided="true"
       sodipodi:sides="3"
       sodipodi:cx="3.6869566"
       sodipodi:cy="2.858427"
       sodipodi:r1="1.8756636"
       sodipodi:r2="0.93783182"
       sodipodi:arg1="0.53284389"
       sodipodi:arg2="1.5800414"
       inkscape:rounded="0"
       inkscape:randomized="0"
       d="M 5.3025893,3.8112361 2.0539835,3.7812015 3.7042971,0.98284357 Z"
       inkscape:transform-center-x="-0.01377946"
       inkscape:transform-center-y="-1.3158358"
       transform="matrix(2.4430111,-0.03258711,0.03727826,2.8172669,0.82904075,-0.66384525)" /><path
       sodipodi:type="star"
       style="fill:#000000;stroke:#000000;stroke-width:0;stroke-opacity:1"
       id="path3"
       inkscape:flatsided="true"
       sodipodi:sides="3"
       sodipodi:cx="3.6869566"
       sodipodi:cy="2.858427"
       sodipodi:r1="1.8756636"
       sodipodi:r2="0.93783182"
       sodipodi:arg1="0.53284389"
       sodipodi:arg2="1.5800414"
       inkscape:rounded="0"
       inkscape:randomized="0"
       d="M 5.3025893,3.8112361 2.0539835,3.7812015 3.7042971,0.98284357 Z"
       inkscape:transform-center-x="-0.013778886"
       inkscape:transform-center-y="-1.3158373"
       transform="matrix(2.4430111,-0.03258711,0.03727826,2.8172669,-3.174439,7.3051196)" /><path
       sodipodi:type="star"
       style="fill:#000000;stroke:#000000;stroke-width:0;stroke-opacity:1"
       id="path4"
       inkscape:flatsided="true"
       sodipodi:sides="3"
       sodipodi:cx="3.6869566"
       sodipodi:cy="2.858427"
       sodipodi:r1="1.8756636"
       sodipodi:r2="0.93783182"
       sodipodi:arg1="0.53284389"
       sodipodi:arg2="1.5800414"
       inkscape:rounded="0"
       inkscape:randomized="0"
       d="M 5.3025893,3.8112361 2.0539835,3.7812015 3.7042971,0.98284357 Z"
       inkscape:transform-center-x="-0.013779262"
       inkscape:transform-center-y="-1.3158373"
       transform="matrix(2.4430111,-0.03258711,0.03727826,2.8172669,4.7625943,7.3051196)" /><g
       id="g12"
       transform="matrix(1.9194761,0,0,1.8204433,-16.211948,-4.272648)"
       style="fill:#f2f2f2"><path
         d="m 15.850617,2.3470371 a 0.92604139,0.92604139 0 0 0 -0.926042,0.9260413 0.92604139,0.92604139 0 0 0 0.926042,0.9260414 0.92604139,0.92604139 0 0 0 0.926041,-0.9260414 0.92604139,0.92604139 0 0 0 -0.926041,-0.9260413 z m 0,0.4630207 a 0.46302068,0.46302068 0 0 1 0.46302,0.4630206 0.46302068,0.46302068 0 0 1 -0.46302,0.4630207 0.46302068,0.46302068 0 0 1 -0.463021,-0.4630207 0.46302068,0.46302068 0 0 1 0.463021,-0.4630206 z"
         style="fill:#f2f2f2;stroke:#000000;stroke-width:0"
         id="path9" /><path
         d="m 17.858094,4.5644761 a 0.92604139,0.92604139 0 0 0 -0.926042,0.9260413 0.92604139,0.92604139 0 0 0 0.926042,0.9260414 0.92604139,0.92604139 0 0 0 0.926041,-0.9260414 0.92604139,0.92604139 0 0 0 -0.926041,-0.9260413 z m 0,0.4630207 a 0.46302068,0.46302068 0 0 1 0.46302,0.4630206 0.46302068,0.46302068 0 0 1 -0.46302,0.4630207 0.46302068,0.46302068 0 0 1 -0.463021,-0.4630207 0.46302068,0.46302068 0 0 1 0.463021,-0.4630206 z"
         style="fill:#f2f2f2;stroke:#000000;stroke-width:0"
         id="path10" /><rect
         style="fill:#f2f2f2;stroke:#000000;stroke-width:0"
         id="rect10"
         width="0.55781782"
         height="4.8148351"
         x="14.892505"
         y="-10.888947"
         transform="rotate(43.946614)" /></g></g></svg>
