<?xml version="1.0" encoding="UTF-8" standalone="no"?>
<!-- Created with Inkscape (http://www.inkscape.org/) -->

<svg
   width="50"
   height="50"
   viewBox="0 0 13.229165 13.229165"
   version="1.1"
   id="svg1"
   sodipodi:docname="ring_fill_red.svg"
   inkscape:version="1.4.2 (ebf0e94, 2025-05-08)"
   xmlns:inkscape="http://www.inkscape.org/namespaces/inkscape"
   xmlns:sodipodi="http://sodipodi.sourceforge.net/DTD/sodipodi-0.dtd"
   xmlns="http://www.w3.org/2000/svg"
   xmlns:svg="http://www.w3.org/2000/svg">
  <sodipodi:namedview
     id="namedview1"
     pagecolor="#ffffff"
     bordercolor="#000000"
     borderopacity="0.25"
     inkscape:showpageshadow="2"
     inkscape:pageopacity="0.0"
     inkscape:pagecheckerboard="0"
     inkscape:deskcolor="#d1d1d1"
     inkscape:document-units="px"
     inkscape:zoom="5.8208333"
     inkscape:cx="32.383679"
     inkscape:cy="47.931281"
     inkscape:window-width="1366"
     inkscape:window-height="731"
     inkscape:window-x="0"
     inkscape:window-y="0"
     inkscape:window-maximized="1"
     inkscape:current-layer="svg1" />
  <defs
     id="defs1" />
  <g
     id="layer1"
     transform="scale(0.55121326)">
    <path
       d="M 11.999784,0 A 12,12 0 0 0 0,11.999784 12,12 0 0 0 11.999784,24.000085 12,12 0 0 0 24.000085,11.999784 12,12 0 0 0 11.999784,0 Z m 0,3.9997559 a 8,8 0 0 1 8.000029,8.0000281 8,8 0 0 1 -8.000029,8.000029 8,8 0 0 1 -8.0000281,-8.000029 8,8 0 0 1 8.0000281,-8.0000281 z"
       style="fill:#ff0700;stroke-width:0.264583"
       id="path2" />
  </g>
</svg>
