<?xml version="1.0" encoding="UTF-8" standalone="no"?>
<svg
   enable-background="new 0 0 595.201 841.92"
   viewBox="0 0 63.9 88.5"
   version="1.1"
   id="svg1"
   sodipodi:docname="explosive_bomb_sprite.svg"
   width="63.900002"
   height="88.5"
   inkscape:version="1.4.2 (ebf0e94, 2025-05-08)"
   inkscape:export-filename="explosive_icon.svg"
   inkscape:export-xdpi="96"
   inkscape:export-ydpi="96"
   xml:space="preserve"
   xmlns:inkscape="http://www.inkscape.org/namespaces/inkscape"
   xmlns:sodipodi="http://sodipodi.sourceforge.net/DTD/sodipodi-0.dtd"
   xmlns="http://www.w3.org/2000/svg"
   xmlns:svg="http://www.w3.org/2000/svg"><defs
     id="defs1" /><sodipodi:namedview
     id="namedview1"
     pagecolor="#ffffff"
     bordercolor="#000000"
     borderopacity="0.25"
     inkscape:showpageshadow="2"
     inkscape:pageopacity="0.0"
     inkscape:pagecheckerboard="0"
     inkscape:deskcolor="#d1d1d1"
     showgrid="false"
     inkscape:zoom="2.4625985"
     inkscape:cx="-42.43485"
     inkscape:cy="80.402874"
     inkscape:window-width="1366"
     inkscape:window-height="731"
     inkscape:window-x="0"
     inkscape:window-y="0"
     inkscape:window-maximized="1"
     inkscape:current-layer="svg1" /><path
     d="m 46.917463,5.3707941 c 1.177136,-0.4967774 2.687389,-0.8154432 4.310898,-0.7478723 0.708809,4.4260594 -1.496782,7.8595482 -4.350646,9.2893612 -1.63565,0.819543 -3.684411,1.273844 -5.827471,0.865958 -1.934507,-0.368196 -3.3794,-1.182983 -4.590297,-2.401064 C 35.222275,11.131708 34.560199,9.755688 34.105177,7.771858 33.694559,5.9825407 32.417805,4.7201781 30.512734,4.3867516 28.290512,3.9977269 26.684964,5.1659493 25.922603,6.6303687 25.04632,8.313573 25.677797,10.289695 26.042346,12.337816 c 1.316004,-0.106113 2.823596,-0.364424 4.310731,-0.432979 0.855328,4.496747 1.596568,9.105673 2.434766,13.619149 9.482944,0.569105 16.077432,3.85269 21.23451,8.738297 5.026859,4.762439 8.925311,11.232027 9.739062,20.035107 0.902892,9.765474 -2.741773,17.299796 -6.984982,22.514729 C 52.414145,82.173672 46.27684,86.437367 38.016767,87.951646 33.430628,88.792347 28.634606,88.639817 24.525773,87.675949 20.495106,86.730283 16.988313,85.099236 14.068258,83.149357 8.0754759,79.147581 3.6255435,73.529682 1.3356336,66.066375 0.13953866,62.167762 -0.34175985,57.31266 0.25795073,52.919566 0.84036519,48.653414 2.2154088,44.897488 3.9699696,41.780205 7.5527664,35.414926 12.887962,30.798945 19.895728,27.846163 19.150497,23.227886 18.208855,18.803467 17.500877,14.14829 c 1.391342,-0.372789 2.793827,-0.734916 4.270817,-1.023405 -0.268422,-1.662376 -0.71147,-3.12171 -0.678541,-4.7627655 0.03144,-1.5715159 0.533188,-3.054304 1.23734,-4.2117021 1.354754,-2.2268883 3.882486,-3.93715422 6.984982,-4.13297869 2.557834,-0.16154698 4.679107,0.82101954 6.146618,2.04664449 1.552827,1.2968041 2.464534,3.0920257 2.953816,5.1957447 0.494935,2.1293038 2.334813,3.5512461 4.55005,3.3851061 2.453891,-0.183524 4.549551,-2.2536211 3.951504,-5.2741399 z"
     fill-rule="evenodd"
     id="path1"
     style="stroke-width:0.165154" /><g
     id="g2"
     transform="matrix(0.26195174,-0.07134619,0.07195717,0.26449857,7.3943853,43.906888)"><path
       d="m 23.650391,27.007812 c -2.72027,-0.11572 -5.478685,1.251265 -7.085938,3.796875 -0.826087,1.308347 -1.231452,2.750677 -1.261719,4.171875 -4.635348,-1.494594 -9.9941323,0.326017 -13.0468746,4.679688 v 0.002 c -0.1156782,0.16493 -0.2270516,0.333616 -0.3359375,0.505812 -3.4843805,5.510253 -2.09544025,12.617022 3.1054687,15.865235 5.1760494,3.232575 12.1791134,1.438046 15.6855464,-4.021485 l 0.05078,-0.07227 c 0.134162,-0.21217 0.253287,-0.431837 0.373047,-0.648438 0.244568,0.209063 0.503937,0.40929 0.77539,0.597657 L 45.855469,68.5 62.318359,79.925781 50.996094,87.78125 20.376953,109.0293 c -3.705913,-5.14939 -10.6071954,-6.64481 -15.6074218,-3.32422 -5.10808567,3.39236 -6.3012103,10.52864 -2.6640624,15.93945 3.1124859,4.63034 8.7560222,6.49986 13.5214842,4.81641 0.06963,1.42051 0.516151,2.85318 1.378906,4.13867 2.44027,3.63594 7.251748,4.70469 10.736328,2.38672 3.484581,-2.31798 4.330975,-7.14726 1.890625,-10.7832 l -0.03516,-0.0508 c -0.304412,-0.44659 -0.644704,-0.8523 -1.013672,-1.21875 L 69.800781,92.332031 75,88.724609 l 5.158203,3.580078 41.255857,28.628903 c -0.36896,0.36645 -0.70926,0.77216 -1.01367,1.21875 l -0.0352,0.0508 c -2.44035,3.63594 -1.59395,8.46522 1.89063,10.7832 3.48458,2.31797 8.29801,1.24922 10.73828,-2.38672 0.86276,-1.28549 1.30732,-2.71816 1.37695,-4.13867 4.76547,1.68345 10.409,-0.18607 13.52149,-4.81641 3.63715,-5.41081 2.44402,-12.54709 -2.66406,-15.93945 -5.00023,-3.32059 -11.89956,-1.82517 -15.60547,3.32422 l -30.566409,-21.210941 -11.375,-7.892578 17.880859,-12.408203 0.002,-0.002 22.52539,-15.630859 c 0.27146,-0.188367 0.52887,-0.388594 0.77344,-0.597657 0.11976,0.216601 0.23889,0.436268 0.37305,0.648438 l 0.0508,0.07227 c 3.50643,5.459531 10.5095,7.25406 15.68555,4.021485 5.20091,-3.248213 6.58985,-10.354982 3.10546,-15.865235 -0.10888,-0.172196 -0.22025,-0.340882 -0.33593,-0.505859 v -0.002 c -3.05274,-4.353671 -8.41153,-6.174282 -13.04688,-4.679688 -0.0303,-1.421198 -0.43563,-2.863528 -1.26172,-4.171875 -1.60725,-2.54561 -4.36566,-3.912595 -7.08593,-3.796875 -1.23649,0.0526 -2.46549,0.411864 -3.57422,1.105469 -3.54794,2.219539 -4.53294,7.023857 -2.19531,10.726563 l 0.0312,0.05469 c 0.10111,0.157635 0.21258,0.306722 0.32226,0.455078 -0.36883,0.190045 -0.73327,0.409569 -1.08594,0.654297 L 116.12695,42.583984 75,71.125 34.353516,42.919922 30.152344,40.003906 c -0.352668,-0.244728 -0.717111,-0.464252 -1.085938,-0.654297 0.109684,-0.148356 0.223104,-0.297443 0.324219,-0.455078 l 0.0293,-0.05469 c 2.337619,-3.702703 1.352618,-8.507021 -2.195316,-10.72656 -1.108729,-0.693605 -2.337732,-1.052868 -3.574218,-1.105469 z"
       style="fill:#efefef;fill-opacity:1"
       id="path7" /><g
       id="g1"
       transform="translate(-0.23227935,0.00269448)"
       style="fill:#d5d5d5;fill-opacity:1"><path
         d="m 83.210937,97.470703 c 4.328812,0 7.8125,3.705377 7.8125,8.306637 v 5.59571 c 0,4.35186 -3.116966,7.89747 -7.117187,8.26953 -0.92322,0.28546 -1.924724,0.44531 -2.974609,0.44531 h -13.125 c -4.083021,0 -7.455058,-2.36521 -8.164063,-5.50195 -0.335844,-0.92844 -0.519531,-1.93704 -0.519531,-2.99414 v -5.59571 c 0,-4.60146 3.483688,-8.306637 7.8125,-8.306637 4.328811,0 7.8125,3.705377 7.8125,8.306637 v 0.0937 h 0.65039 v -0.3125 c 10e-7,-4.60146 3.48389,-8.306637 7.8125,-8.306637 z"
         style="fill:#d5d5d5;fill-opacity:1"
         id="path7-5" /><path
         d="M 74.984375,-0.00195313 V 0 C 53.326284,0.11148013 35.312751,16.970484 34.318359,38.542969 c -0.0681,1.475384 -0.0556,2.935438 0.03516,4.376953 0.621467,9.870905 4.875856,18.848694 11.501953,25.580078 1.451534,1.474599 3.01762,2.841195 4.683593,4.085937 v 0.002 0.002 0.002 l 0.324219,13.652344 c 0,0.525293 0.04593,1.039475 0.132813,1.537109 0.674162,3.861353 3.845065,6.763672 7.679687,6.763672 4.328812,0 7.8125,-3.699515 7.8125,-8.300781 l -0.08398,-3.484375 -0.07227,-2.957032 c 0.275483,0.06018 0.556357,0.121076 0.833985,0.175782 -0.0098,0.170694 -0.01953,0.340274 -0.01953,0.513671 v 2.783204 2.8125 c 0,2.493725 1.02611,4.723695 2.654297,6.24414 1.376043,1.284986 3.181407,2.0625 5.164063,2.0625 1.996877,0 3.815108,-0.788349 5.193359,-2.089844 1.60937,-1.519741 2.621094,-3.738081 2.621094,-6.216796 v -2.761719 -2.833985 c 0,-0.139567 -0.0073,-0.274277 -0.01367,-0.412109 0.230334,-0.04227 0.460442,-0.08674 0.689453,-0.132812 l 0.06836,2.863281 0.07617,3.277344 c 0,4.601266 3.483689,8.30664 7.8125,8.30664 3.770228,0 6.899732,-2.810488 7.644532,-6.576172 0.110347,-0.557911 0.167968,-1.136701 0.167968,-1.730468 l -0.30664,-12.761719 c 2.420785,-1.694736 4.649545,-3.64352 6.644535,-5.808594 6.11484,-6.636166 10.03313,-15.306751 10.56445,-24.933594 0.007,-0.121683 0.0139,-0.243247 0.0195,-0.365234 C 117.17434,19.951193 99.679621,1.0495961 77.095703,0.03515625 76.389946,0.00348608 75.682955,-0.00554978 74.984375,-0.00195313 Z M 88.009766,38.886719 c 0.161705,-10e-4 0.324928,-0.0022 0.488281,0.0059 5.227372,0.255414 9.278787,5.020715 9.041015,10.632813 -0.236769,5.585433 -4.626161,9.917388 -9.830078,9.705078 h -0.07031 c -5.227373,-0.255415 -9.276835,-5.020715 -9.039063,-10.632813 0.230475,-5.436876 4.397099,-9.682669 9.410157,-9.710937 z m -25.222657,7.324218 c 0.114087,-6.01e-4 0.228493,8.08e-4 0.34375,0.0059 3.688071,0.16201 6.544958,3.182426 6.376953,6.742187 -0.167051,3.542721 -3.263916,6.292727 -6.935546,6.158203 h -0.04883 c -3.68807,-0.162005 -6.54691,-3.182425 -6.378906,-6.742187 0.162607,-3.448494 3.105872,-6.14622 6.642578,-6.164063 z"
         style="fill:#d5d5d5;fill-opacity:1"
         id="path6" /></g></g></svg>
