<?xml version="1.0" encoding="UTF-8" standalone="no"?>
<!-- Created with Inkscape (http://www.inkscape.org/) -->

<svg
   width="110.00001mm"
   height="112mm"
   viewBox="0 0 110.00001 112"
   version="1.1"
   id="svg1"
   sodipodi:docname="ui_pressed_locked_button_background.svg"
   inkscape:version="1.4.2 (ebf0e94, 2025-05-08)"
   xmlns:inkscape="http://www.inkscape.org/namespaces/inkscape"
   xmlns:sodipodi="http://sodipodi.sourceforge.net/DTD/sodipodi-0.dtd"
   xmlns="http://www.w3.org/2000/svg"
   xmlns:svg="http://www.w3.org/2000/svg">
  <sodipodi:namedview
     id="namedview1"
     pagecolor="#ffffff"
     bordercolor="#000000"
     borderopacity="0.25"
     inkscape:showpageshadow="2"
     inkscape:pageopacity="0.0"
     inkscape:pagecheckerboard="0"
     inkscape:deskcolor="#d1d1d1"
     inkscape:document-units="mm"
     showgrid="false"
     inkscape:zoom="1.2473214"
     inkscape:cx="208.04581"
     inkscape:cy="211.65354"
     inkscape:window-width="1366"
     inkscape:window-height="731"
     inkscape:window-x="0"
     inkscape:window-y="0"
     inkscape:window-maximized="1"
     inkscape:current-layer="svg1" />
  <defs
     id="defs1" />
  <g
     id="layer1">
    <rect
       style="fill:#0c0c0c;fill-opacity:1;stroke-width:0.569232"
       id="rect3"
       width="110"
       height="100"
       x="0"
       y="12"
       rx="15.27777"
       ry="13.888888" />
    <rect
       style="fill:#545454;fill-opacity:1;stroke-width:0.557734"
       id="rect2"
       width="110"
       height="96"
       x="-110"
       y="-96"
       rx="15.277778"
       ry="13.333333"
       transform="scale(-1)" />
    <rect
       style="fill:#171717;fill-opacity:1;stroke-width:0.529174"
       id="rect1"
       width="97.5"
       height="97.5"
       x="6.25"
       y="6"
       rx="13.541661"
       ry="13.541666" />
    <path
       style="fill:#343434;fill-opacity:1;stroke-width:0.891962"
       d="M 20.425583,350.25065 C 15.303585,346.54029 9.2179545,339.42964 6.0044997,333.40059 0.11138586,322.34397 0.44598087,331.48677 0.44598087,181.51421 0.44598087,32.907122 0.16240259,41.325853 5.5484988,30.033206 9.1310578,22.521908 20.465658,11.565434 28.988756,7.3749221 43.30702,0.33512914 27.946289,0.89196173 207.82708,0.89196173 c 179.69102,0 164.29458,-0.55137939 178.8101,6.40357437 8.43485,4.0414679 19.86351,15.0498809 23.56864,22.7019959 5.25163,10.846068 4.98119,2.619844 4.98119,151.516678 0,148.80832 0.2637,140.74459 -4.95118,151.40342 -2.59105,5.29593 -11.89107,15.74184 -16.31019,18.31983 l -2.72289,1.58847 0.63021,-4.71034 c 0.34661,-2.59067 0.6302,-67.12534 0.6302,-143.41037 0,-131.094407 -0.0881,-138.985301 -1.60712,-143.901998 C 385.2352,42.609593 373.57677,30.445051 356.33871,24.787401 l -7.58167,-2.488358 H 208.27306 c -131.396663,0 -140.851825,0.101634 -146.170801,1.571189 -13.829405,3.820862 -26.234856,13.49698 -32.413578,25.282244 -6.519802,12.43584 -6.105012,1.046157 -5.842024,160.415744 0.12997,78.76151 0.196187,143.20273 0.147148,143.2027 -0.04904,-3e-5 -1.654738,-1.13416 -3.568222,-2.52027 z"
       id="path4"
       transform="scale(0.26458333)" />
  </g>
  <path
     style="fill:#202020;fill-opacity:1;stroke-width:0.801718"
     d="M 62.305934,389.2258 C 47.974025,385.45446 35.755855,375.6016 29.508216,362.77738 27.682268,359.02935 25.797731,354.05096 25.320355,351.7143 24.183845,346.1513 24.146431,73.290821 25.280979,64.546853 26.601122,54.372506 33.19932,42.7904 41.912335,35.353105 c 5.453906,-4.65537 9.978266,-7.205789 17.502864,-9.866508 l 6.325674,-2.236776 H 206.84324 c 155.87632,0 144.55159,-0.38773 156.63161,5.362671 5.23666,2.492787 8.0676,4.543577 12.89049,9.338148 6.60363,6.564854 9.99248,11.82485 12.99745,20.173913 l 1.87558,5.211166 0.2135,140.890501 c 0.2388,157.57828 0.609,147.00894 -5.57958,159.30123 -5.74892,11.41902 -16.70221,20.74573 -29.50865,25.12656 l -5.21117,1.78264 -141.50322,0.16297 C 72.475425,390.75759 67.967345,390.71556 62.305934,389.2258 Z"
     id="path1"
     transform="scale(0.26458333)" />
</svg>
