<?xml version="1.0" encoding="UTF-8" standalone="no"?>
<svg
   enable-background="new 0 0 595.201 841.92"
   viewBox="0 0 64.999999 77.800003"
   version="1.1"
   id="svg1"
   width="65"
   height="77.800003"
   xml:space="preserve"
   xmlns="http://www.w3.org/2000/svg"
   xmlns:svg="http://www.w3.org/2000/svg"><defs
     id="defs1" /><path
     d="m 40.382793,4.7214439 c 1.013185,-0.4367151 2.313089,-0.7168529 3.710475,-0.6574516 0.610086,3.8909314 -1.28831,6.9092977 -3.744687,8.1662417 -1.407836,0.720457 -3.171247,1.119831 -5.01582,0.761259 -1.665068,-0.323679 -2.908718,-1.039955 -3.95096,-2.110765 C 30.316512,9.7858402 29.74665,8.5761868 29.355003,6.8322098 29.001577,5.2592279 27.902649,4.1494898 26.262917,3.8563761 24.350206,3.5143859 22.968279,4.5413657 22.312101,5.8287309 c -0.754235,1.4796983 -0.210711,3.216899 0.103064,5.0173941 1.132711,-0.09329 2.430325,-0.320364 3.710332,-0.38063 0.736198,3.953072 1.374197,8.004762 2.095651,11.972541 8.162158,0.500297 13.838164,3.386885 18.276966,7.681803 4.326716,4.18664 7.682191,9.87403 8.382603,17.612782 0.777137,8.584789 -2.359898,15.208184 -6.012114,19.79261 -3.754707,4.71332 -9.037207,8.461516 -16.146816,9.792713 -3.947381,0.739057 -8.075413,0.604968 -11.611967,-0.242363 -3.469275,-0.831332 -6.487642,-2.265178 -9.000991,-3.97931 C 6.9507226,69.578325 3.1205773,64.639653 1.1496064,58.078688 0.12010367,54.651434 -0.29415952,50.383334 0.22202329,46.521382 0.72331898,42.771024 1.9068463,39.469205 3.4170317,36.728813 6.5008162,31.133122 11.092925,27.075231 17.124648,24.479452 16.483213,20.419543 15.672724,16.530054 15.063352,12.437705 c 1.197557,-0.327716 2.404703,-0.646062 3.675977,-0.89967 -0.231035,-1.461388 -0.612376,-2.7442838 -0.584033,-4.1869288 0.02706,-1.3815134 0.458925,-2.6850266 1.065003,-3.7024906 1.166063,-1.9576488 3.341733,-3.46113678 6.012113,-3.63328529 2.201579,-0.14201532 4.0274,0.72175503 5.290516,1.79919709 1.33655,1.1400154 2.121274,2.7181876 2.542408,4.5675586 0.426001,1.8718626 2.00962,3.1218858 3.916319,2.9758337 2.112113,-0.1613352 3.915889,-1.9811497 3.401138,-4.6364758 z"
     fill-rule="evenodd"
     id="path1"
     style="stroke-width:0.143661" /><g
     id="g1"
     transform="matrix(0.31997806,0,0,0.31997806,37,0)"
     style="fill:#f2f2f2"><path
       d="m 43,26 c -1.656,0 -3,1.343 -3,3 v 28 c 0,1.657 1.344,3 3,3 1.656,0 3,-1.343 3,-3 V 29 c 0,-1.657 -1.344,-3 -3,-3 z"
       id="path1-3"
       style="fill:#f2f2f2" /><path
       d="m 87.506,23.807 c 0,0 -1.414,-4.242 -4.243,-7.07 -2.829,-2.828 -7.07,-4.243 -7.07,-4.243 l -8.988,8.988 C 62.408,18.202 56.916,15.876 51,14.758 V 2 C 51,2 47,0 43,0 39,0 35,2 35,2 V 14.758 C 15.102,18.52 0,36.024 0,57 0,80.71 19.29,100 43,100 66.71,100 86,80.71 86,57 86,48.029 83.235,39.695 78.518,32.795 Z M 43,94 C 22.598,94 6,77.402 6,57 6,36.598 22.598,20 43,20 63.402,20 80,36.598 80,57 80,77.402 63.402,94 43,94 Z"
       id="path2"
       style="fill:#f2f2f2" /></g></svg>
