<?xml version="1.0" encoding="UTF-8" standalone="no"?>
<svg
   enable-background="new 0 0 595.201 841.92"
   viewBox="0 0 64.999999 77.800003"
   version="1.1"
   id="svg1"
   width="65"
   height="77.800003"
   xml:space="preserve"
   sodipodi:docname="explosive_place_delay_icon.svg"
   inkscape:version="1.4.2 (ebf0e94, 2025-05-08)"
   xmlns:inkscape="http://www.inkscape.org/namespaces/inkscape"
   xmlns:sodipodi="http://sodipodi.sourceforge.net/DTD/sodipodi-0.dtd"
   xmlns="http://www.w3.org/2000/svg"
   xmlns:svg="http://www.w3.org/2000/svg"><sodipodi:namedview
     id="namedview1"
     pagecolor="#ffffff"
     bordercolor="#000000"
     borderopacity="0.25"
     inkscape:showpageshadow="2"
     inkscape:pageopacity="0.0"
     inkscape:pagecheckerboard="0"
     inkscape:deskcolor="#d1d1d1"
     inkscape:zoom="5.5176583"
     inkscape:cx="10.511706"
     inkscape:cy="40.596932"
     inkscape:window-width="1366"
     inkscape:window-height="731"
     inkscape:window-x="0"
     inkscape:window-y="0"
     inkscape:window-maximized="1"
     inkscape:current-layer="svg1"
     showgrid="false" /><defs
     id="defs1" /><path
     d="m 40.382793,4.7214439 c 1.013185,-0.4367151 2.313089,-0.7168529 3.710475,-0.6574516 0.610086,3.8909314 -1.28831,6.9092977 -3.744687,8.1662417 -1.407836,0.720457 -3.171247,1.119831 -5.01582,0.761259 -1.665068,-0.323679 -2.908718,-1.039955 -3.95096,-2.110765 C 30.316512,9.7858402 29.74665,8.5761868 29.355003,6.8322098 29.001577,5.2592279 27.902649,4.1494898 26.262917,3.8563761 24.350206,3.5143859 22.968279,4.5413657 22.312101,5.8287309 c -0.754235,1.4796983 -0.210711,3.216899 0.103064,5.0173941 1.132711,-0.09329 2.430325,-0.320364 3.710332,-0.38063 0.736198,3.953072 1.374197,8.004762 2.095651,11.972541 8.162158,0.500297 13.838164,3.386885 18.276966,7.681803 4.326716,4.18664 7.682191,9.87403 8.382603,17.612782 0.777137,8.584789 -2.359898,15.208184 -6.012114,19.79261 -3.754707,4.71332 -9.037207,8.461516 -16.146816,9.792713 -3.947381,0.739057 -8.075413,0.604968 -11.611967,-0.242363 -3.469275,-0.831332 -6.487642,-2.265178 -9.000991,-3.97931 C 6.9507226,69.578325 3.1205773,64.639653 1.1496064,58.078688 0.12010367,54.651434 -0.29415952,50.383334 0.22202329,46.521382 0.72331898,42.771024 1.9068463,39.469205 3.4170317,36.728813 6.5008162,31.133122 11.092925,27.075231 17.124648,24.479452 16.483213,20.419543 15.672724,16.530054 15.063352,12.437705 c 1.197557,-0.327716 2.404703,-0.646062 3.675977,-0.89967 -0.231035,-1.461388 -0.612376,-2.7442838 -0.584033,-4.1869288 0.02706,-1.3815134 0.458925,-2.6850266 1.065003,-3.7024906 1.166063,-1.9576488 3.341733,-3.46113678 6.012113,-3.63328529 2.201579,-0.14201532 4.0274,0.72175503 5.290516,1.79919709 1.33655,1.1400154 2.121274,2.7181876 2.542408,4.5675586 0.426001,1.8718626 2.00962,3.1218858 3.916319,2.9758337 2.112113,-0.1613352 3.915889,-1.9811497 3.401138,-4.6364758 z"
     fill-rule="evenodd"
     id="path1"
     style="stroke-width:0.143661" /><g
     id="g12"
     transform="matrix(1.6393665,0,0,1.6393665,0.98966158,-67.223568)"
     style="fill:#f2f2f2"><path
       d="m 25.318359,47.939453 a 0.43176693,0.43176693 0 0 0 -0.296875,0.128906 l -1.441406,1.44336 a 0.43176693,0.43176693 0 1 0 0.609375,0.609375 l 1.443359,-1.441407 a 0.43176693,0.43176693 0 0 0 -0.314453,-0.740234 z"
       style="fill:#f2f2f2;fill-rule:evenodd"
       id="path12" /><path
       d="m 22.408203,45.914062 a 0.43176693,0.43176693 0 1 0 0,0.863282 h 2.242188 a 0.43176693,0.43176693 0 1 0 0,-0.863282 z"
       style="fill:#f2f2f2;fill-rule:evenodd"
       id="path11" /><path
       d="m 23.839844,42.478516 a 0.43176693,0.43176693 0 0 0 -0.300782,0.740234 l 1.240235,1.240234 a 0.43176693,0.43176693 0 1 0 0.611328,-0.609375 l -1.240234,-1.240234 a 0.43176693,0.43176693 0 0 0 -0.310547,-0.130859 z"
       style="fill:#f2f2f2;fill-rule:evenodd"
       id="path10" /><path
       d="m 27.306641,41.005859 a 0.43176693,0.43176693 0 0 0 -0.425782,0.4375 v 1.742188 a 0.43196324,0.43196324 0 0 0 0.863282,0 v -1.742188 a 0.43176693,0.43176693 0 0 0 -0.4375,-0.4375 z"
       style="fill:#f2f2f2;fill-rule:evenodd"
       id="path9" /><path
       d="m 30.771484,42.478516 a 0.43176693,0.43176693 0 0 0 -0.296875,0.130859 l -1.4375,1.435547 a 0.43227426,0.43227426 0 1 0 0.611328,0.611328 l 1.4375,-1.4375 a 0.43176693,0.43176693 0 0 0 -0.314453,-0.740234 z"
       style="fill:#f2f2f2;fill-rule:evenodd"
       id="path8" /><path
       d="m 26.603516,44.994141 c -0.422056,-0.0067 -0.723699,0.403705 -0.591797,0.804687 l 3.884765,11.839844 c 0.164203,0.497178 0.835827,0.57456 1.107422,0.126953 l 1.777344,-2.933594 2.556641,2.558594 c 0.239589,0.239509 0.627555,0.239509 0.867187,0 l 2.173828,-2.173828 c 0.239467,-0.239571 0.239467,-0.627617 0,-0.867188 L 35.822266,51.792969 38.75,50.017578 c 0.447644,-0.271595 0.372166,-0.943189 -0.125,-1.107422 L 26.785156,45.025391 c -0.0584,-0.01963 -0.1201,-0.03002 -0.18164,-0.03125 z"
       style="fill:#f2f2f2"
       id="path7" /></g></svg>
