<?xml version="1.0" encoding="UTF-8" standalone="no"?>
<svg
   enable-background="new 0 0 595.201 841.92"
   viewBox="0 0 54.999999 77.800003"
   version="1.1"
   id="svg1"
   width="55"
   height="77.800003"
   sodipodi:docname="explosive_damage_icon.svg"
   inkscape:version="1.4.2 (ebf0e94, 2025-05-08)"
   xmlns:inkscape="http://www.inkscape.org/namespaces/inkscape"
   xmlns:sodipodi="http://sodipodi.sourceforge.net/DTD/sodipodi-0.dtd"
   xmlns="http://www.w3.org/2000/svg"
   xmlns:svg="http://www.w3.org/2000/svg">
  <sodipodi:namedview
     id="namedview1"
     pagecolor="#ffffff"
     bordercolor="#000000"
     borderopacity="0.25"
     inkscape:showpageshadow="2"
     inkscape:pageopacity="0.0"
     inkscape:pagecheckerboard="0"
     inkscape:deskcolor="#d1d1d1"
     showgrid="false"
     inkscape:zoom="6.7866321"
     inkscape:cx="27.480494"
     inkscape:cy="38.900002"
     inkscape:window-width="1366"
     inkscape:window-height="731"
     inkscape:window-x="0"
     inkscape:window-y="0"
     inkscape:window-maximized="1"
     inkscape:current-layer="svg1" />
  <defs
     id="defs1" />
  <path
     d="m 40.382793,4.7214439 c 1.013185,-0.4367151 2.313089,-0.7168529 3.710475,-0.6574516 0.610086,3.8909314 -1.28831,6.9092977 -3.744687,8.1662417 -1.407836,0.720457 -3.171247,1.119831 -5.01582,0.761259 -1.665068,-0.323679 -2.908718,-1.039955 -3.95096,-2.110765 C 30.316512,9.7858402 29.74665,8.5761868 29.355003,6.8322098 29.001577,5.2592279 27.902649,4.1494898 26.262917,3.8563761 24.350206,3.5143859 22.968279,4.5413657 22.312101,5.8287309 c -0.754235,1.4796983 -0.210711,3.216899 0.103064,5.0173941 1.132711,-0.09329 2.430325,-0.320364 3.710332,-0.38063 0.736198,3.953072 1.374197,8.004762 2.095651,11.972541 8.162158,0.500297 13.838164,3.386885 18.276966,7.681803 4.326716,4.18664 7.682191,9.87403 8.382603,17.612782 0.777137,8.584789 -2.359898,15.208184 -6.012114,19.79261 -3.754707,4.71332 -9.037207,8.461516 -16.146816,9.792713 -3.947381,0.739057 -8.075413,0.604968 -11.611967,-0.242363 -3.469275,-0.831332 -6.487642,-2.265178 -9.000991,-3.97931 C 6.9507226,69.578325 3.1205773,64.639653 1.1496064,58.078688 0.12010367,54.651434 -0.29415952,50.383334 0.22202329,46.521382 0.72331898,42.771024 1.9068463,39.469205 3.4170317,36.728813 6.5008162,31.133122 11.092925,27.075231 17.124648,24.479452 16.483213,20.419543 15.672724,16.530054 15.063352,12.437705 c 1.197557,-0.327716 2.404703,-0.646062 3.675977,-0.89967 -0.231035,-1.461388 -0.612376,-2.7442838 -0.584033,-4.1869288 0.02706,-1.3815134 0.458925,-2.6850266 1.065003,-3.7024906 1.166063,-1.9576488 3.341733,-3.46113678 6.012113,-3.63328529 2.201579,-0.14201532 4.0274,0.72175503 5.290516,1.79919709 1.33655,1.1400154 2.121274,2.7181876 2.542408,4.5675586 0.426001,1.8718626 2.00962,3.1218858 3.916319,2.9758337 2.112113,-0.1613352 3.915889,-1.9811497 3.401138,-4.6364758 z"
     fill-rule="evenodd"
     id="path1"
     style="stroke-width:0.143661" />
  <g
     id="g10"
     transform="matrix(1.2703116,0,0,1.2703116,6.4686201,1.1030455)"
     style="fill:#ff1a0b;fill-opacity:1">
    <ellipse
       style="fill:#ff1a0b;fill-opacity:1;stroke-width:0.357587"
       id="ellipse3"
       cx="28.364206"
       cy="44.446281"
       rx="1.25"
       ry="3.75" />
    <ellipse
       style="fill:#ff1a0b;fill-opacity:1;stroke-width:0.357587"
       id="ellipse4"
       cx="55.791145"
       cy="9.5879936"
       rx="1.25"
       ry="3.75"
       transform="rotate(45)" />
    <ellipse
       style="fill:#ff1a0b;fill-opacity:1;stroke-width:0.357587"
       id="ellipse5"
       cx="50.536388"
       cy="-34.454311"
       rx="1.25"
       ry="3.75"
       transform="rotate(90)" />
    <ellipse
       style="fill:#ff1a0b;fill-opacity:1;stroke-width:0.357587"
       id="ellipse6"
       cx="15.6781"
       cy="-61.881248"
       rx="1.25"
       ry="3.75"
       transform="rotate(135)" />
    <ellipse
       style="fill:#ff1a0b;fill-opacity:1;stroke-width:0.357587"
       id="ellipse7"
       cx="-28.364206"
       cy="-56.626492"
       rx="1.25"
       ry="3.75"
       transform="scale(-1)" />
    <ellipse
       style="fill:#ff1a0b;fill-opacity:1;stroke-width:0.357587"
       id="ellipse8"
       cx="-55.791145"
       cy="-21.768206"
       rx="1.25"
       ry="3.75"
       transform="rotate(-135)" />
    <ellipse
       style="fill:#ff1a0b;fill-opacity:1;stroke-width:0.357587"
       id="ellipse9"
       cx="-50.536388"
       cy="22.274101"
       rx="1.25"
       ry="3.75"
       transform="rotate(-90)" />
    <ellipse
       style="fill:#ff1a0b;fill-opacity:1;stroke-width:0.357587"
       id="path2"
       cx="-15.6781"
       cy="49.701038"
       rx="1.25"
       ry="3.75"
       transform="rotate(-45)" />
  </g>
</svg>
